<svg xmlns="http://www.w3.org/2000/svg" xmlns:xlink="http://www.w3.org/1999/xlink" width="800" zoomAndPan="magnify" viewBox="0 0 600 449.999984" height="600" preserveAspectRatio="xMidYMid meet" version="1.0"><defs fill="#e6e5e5"><clipPath id="3cf59786a6" fill="#e6e5e5"><path d="M 92.074219 25.03125 L 491.824219 25.03125 L 491.824219 424 L 92.074219 424 Z M 92.074219 25.03125 " clip-rule="nonzero" fill="#e6e5e5"/></clipPath></defs><g clip-path="url(#9DE0AD86a6)"><path fill="#e6e5e5" d="M 101.507812 25.378906 C 100.644531 25.378906 99.804688 25.503906 98.980469 25.757812 C 98.15625 26.007812 97.390625 26.375 96.675781 26.855469 C 95.960938 27.335938 95.332031 27.910156 94.789062 28.578125 C 94.25 29.246094 93.816406 29.980469 93.492188 30.777344 C 93.167969 31.574219 92.96875 32.402344 92.890625 33.257812 C 92.8125 34.117188 92.863281 34.964844 93.039062 35.808594 C 93.214844 36.648438 93.511719 37.449219 93.925781 38.203125 C 94.339844 38.957031 94.855469 39.632812 95.472656 40.234375 L 476.1875 420.949219 C 476.585938 421.363281 477.023438 421.734375 477.496094 422.0625 C 477.96875 422.390625 478.46875 422.671875 478.996094 422.898438 C 479.523438 423.128906 480.070312 423.300781 480.632812 423.421875 C 481.195312 423.539062 481.765625 423.601562 482.339844 423.609375 C 482.917969 423.613281 483.488281 423.5625 484.054688 423.457031 C 484.617188 423.347656 485.167969 423.183594 485.699219 422.96875 C 486.234375 422.75 486.738281 422.480469 487.21875 422.164062 C 487.699219 421.84375 488.140625 421.480469 488.546875 421.074219 C 488.957031 420.667969 489.320312 420.222656 489.636719 419.746094 C 489.957031 419.265625 490.222656 418.757812 490.441406 418.226562 C 490.660156 417.691406 490.820312 417.144531 490.929688 416.578125 C 491.039062 416.011719 491.089844 415.441406 491.082031 414.867188 C 491.078125 414.292969 491.015625 413.722656 490.894531 413.160156 C 490.773438 412.597656 490.601562 412.050781 490.375 411.523438 C 490.144531 410.992188 489.867188 410.492188 489.539062 410.019531 C 489.210938 409.546875 488.839844 409.113281 488.421875 408.714844 L 459.929688 380.21875 L 490.957031 380.21875 L 490.957031 68.726562 L 148.4375 68.726562 L 107.707031 28 C 106.894531 27.160156 105.949219 26.515625 104.871094 26.0625 C 103.796875 25.605469 102.675781 25.378906 101.507812 25.378906 Z M 92.9375 68.726562 L 92.9375 380.21875 L 410.550781 380.21875 L 394.511719 364.183594 L 309.777344 279.449219 L 289.414062 299.8125 C 286.03125 303.195312 280.5625 303.195312 277.179688 299.8125 C 273.792969 296.429688 273.792969 290.960938 277.179688 287.578125 L 297.542969 267.214844 L 210.527344 180.195312 L 110.242188 273.785156 L 110.242188 86.03125 L 116.359375 86.03125 L 99.054688 68.726562 Z M 165.742188 86.03125 L 473.652344 86.03125 L 473.652344 324.722656 L 375.9375 227.007812 C 372.554688 223.625 367.085938 223.625 363.703125 227.007812 L 335.210938 255.5 Z M 378.472656 137.949219 C 377.625 137.949219 376.777344 137.988281 375.929688 138.074219 C 375.082031 138.15625 374.242188 138.28125 373.410156 138.445312 C 372.578125 138.613281 371.753906 138.820312 370.9375 139.066406 C 370.125 139.3125 369.324219 139.597656 368.539062 139.921875 C 367.753906 140.25 366.988281 140.613281 366.238281 141.011719 C 365.488281 141.414062 364.757812 141.851562 364.054688 142.324219 C 363.347656 142.792969 362.664062 143.300781 362.007812 143.839844 C 361.347656 144.378906 360.71875 144.949219 360.121094 145.550781 C 359.519531 146.152344 358.949219 146.78125 358.410156 147.4375 C 357.871094 148.09375 357.363281 148.777344 356.890625 149.484375 C 356.417969 150.191406 355.980469 150.917969 355.582031 151.667969 C 355.179688 152.417969 354.816406 153.1875 354.492188 153.972656 C 354.167969 154.757812 353.882812 155.558594 353.632812 156.371094 C 353.386719 157.183594 353.179688 158.007812 353.015625 158.839844 C 352.847656 159.675781 352.726562 160.515625 352.640625 161.363281 C 352.558594 162.207031 352.515625 163.054688 352.515625 163.90625 C 352.515625 164.753906 352.558594 165.605469 352.640625 166.449219 C 352.726562 167.296875 352.847656 168.136719 353.015625 168.96875 C 353.179688 169.804688 353.386719 170.628906 353.632812 171.441406 C 353.882812 172.253906 354.167969 173.054688 354.492188 173.839844 C 354.816406 174.625 355.179688 175.390625 355.582031 176.140625 C 355.980469 176.890625 356.417969 177.621094 356.890625 178.328125 C 357.363281 179.035156 357.871094 179.714844 358.410156 180.375 C 358.949219 181.03125 359.519531 181.660156 360.121094 182.261719 C 360.71875 182.863281 361.347656 183.433594 362.007812 183.972656 C 362.664062 184.511719 363.347656 185.015625 364.054688 185.488281 C 364.757812 185.960938 365.488281 186.398438 366.238281 186.796875 C 366.988281 187.199219 367.753906 187.5625 368.539062 187.886719 C 369.324219 188.210938 370.125 188.5 370.9375 188.746094 C 371.753906 188.992188 372.578125 189.199219 373.410156 189.363281 C 374.242188 189.53125 375.082031 189.65625 375.929688 189.738281 C 376.777344 189.820312 377.625 189.863281 378.472656 189.863281 C 379.324219 189.863281 380.171875 189.820312 381.019531 189.738281 C 381.863281 189.65625 382.703125 189.53125 383.539062 189.363281 C 384.371094 189.199219 385.195312 188.992188 386.007812 188.746094 C 386.824219 188.5 387.621094 188.210938 388.40625 187.886719 C 389.191406 187.5625 389.960938 187.199219 390.710938 186.796875 C 391.460938 186.398438 392.1875 185.960938 392.894531 185.488281 C 393.601562 185.015625 394.285156 184.511719 394.941406 183.972656 C 395.597656 183.433594 396.226562 182.863281 396.828125 182.261719 C 397.429688 181.660156 398 181.03125 398.539062 180.375 C 399.078125 179.714844 399.585938 179.035156 400.058594 178.328125 C 400.53125 177.621094 400.964844 176.890625 401.367188 176.140625 C 401.769531 175.390625 402.128906 174.625 402.457031 173.839844 C 402.78125 173.054688 403.066406 172.253906 403.3125 171.441406 C 403.5625 170.628906 403.765625 169.804688 403.933594 168.96875 C 404.097656 168.136719 404.222656 167.296875 404.308594 166.449219 C 404.390625 165.605469 404.433594 164.753906 404.433594 163.90625 C 404.433594 163.054688 404.390625 162.207031 404.308594 161.363281 C 404.222656 160.515625 404.097656 159.675781 403.933594 158.839844 C 403.765625 158.007812 403.5625 157.183594 403.3125 156.371094 C 403.066406 155.558594 402.78125 154.757812 402.457031 153.972656 C 402.128906 153.1875 401.769531 152.417969 401.367188 151.667969 C 400.964844 150.917969 400.53125 150.191406 400.058594 149.484375 C 399.585938 148.777344 399.078125 148.09375 398.539062 147.4375 C 398 146.78125 397.429688 146.152344 396.828125 145.550781 C 396.226562 144.949219 395.597656 144.378906 394.941406 143.839844 C 394.285156 143.300781 393.601562 142.792969 392.894531 142.324219 C 392.1875 141.851562 391.460938 141.414062 390.710938 141.011719 C 389.960938 140.613281 389.191406 140.25 388.40625 139.921875 C 387.621094 139.597656 386.824219 139.3125 386.007812 139.066406 C 385.195312 138.820312 384.371094 138.613281 383.539062 138.445312 C 382.703125 138.28125 381.863281 138.15625 381.019531 138.074219 C 380.171875 137.988281 379.324219 137.949219 378.472656 137.949219 Z M 378.472656 137.949219 " fill-opacity="1" fill-rule="nonzero"/></g></svg>